# 3ds Max Wavefront OBJ Exporter v0.97b - (c)2007 guruware
# File Created: 21.01.2013 18:45:39

mtllib Sponge.mtl

#
# object Sponge
#

v  2.6261 0.0000 9.0497
v  2.0886 0.0000 11.0989
v  -2.0886 0.0000 11.0989
v  -2.6261 0.0000 9.0497
v  2.2242 0.0000 -0.0000
v  2.8110 0.0000 6.0331
v  -2.8110 0.0000 6.0331
v  -2.2242 0.0000 -0.0000
v  2.9517 0.0000 -6.0331
v  -2.9517 0.0000 -6.0331
v  2.9162 0.0000 -9.0497
v  -2.9162 0.0000 -9.0497
v  2.0886 7.0000 11.0989
v  2.6261 7.0000 9.0497
v  -2.6261 7.0000 9.0497
v  -2.0886 7.0000 11.0989
v  2.8110 7.0000 6.0331
v  2.2242 7.0000 -0.0000
v  -2.2242 7.0000 -0.0000
v  -2.8110 7.0000 6.0331
v  2.9517 7.0000 -6.0331
v  -2.9517 7.0000 -6.0331
v  2.9162 7.0000 -9.0497
v  -2.9162 7.0000 -9.0497
v  1.8349 1.0000 12.0662
v  1.8349 6.0000 12.0662
v  -1.8349 6.0000 12.0662
v  -1.8349 1.0000 12.0662
v  5.5332 1.0000 8.2500
v  5.5332 6.0000 8.2500
v  3.8662 6.0000 11.0000
v  3.8662 1.0000 11.0000
v  5.9230 1.0000 5.5000
v  4.6865 1.0000 -0.0000
v  4.6865 6.0000 -0.0000
v  5.9230 6.0000 5.5000
v  6.2194 1.0000 -5.5000
v  6.2194 6.0000 -5.5000
v  6.1445 1.0000 -8.2500
v  6.1445 6.0000 -8.2500
v  -2.1947 1.0000 -12.0662
v  -2.1947 6.0000 -12.0662
v  2.1947 6.0000 -12.0662
v  2.1947 1.0000 -12.0662
v  -6.1445 1.0000 -8.2500
v  -6.1445 6.0000 -8.2500
v  -4.6242 6.0000 -11.0000
v  -4.6242 1.0000 -11.0000
v  -6.2194 1.0000 -5.5000
v  -4.6865 1.0000 -0.0000
v  -4.6865 6.0000 -0.0000
v  -6.2194 6.0000 -5.5000
v  -5.9230 1.0000 5.5000
v  -5.9230 6.0000 5.5000
v  -5.5332 1.0000 8.2500
v  -5.5332 6.0000 8.2500
v  2.4273 0.0000 -11.0936
v  -2.4273 0.0000 -11.0936
v  -2.4273 7.0000 -11.0936
v  2.4273 7.0000 -11.0936
v  4.6243 1.0000 -11.0000
v  4.6243 6.0000 -11.0000
v  -3.8662 1.0000 11.0000
v  -3.8662 6.0000 11.0000
v  3.1552 0.0000 10.2438
v  -3.1552 0.0000 10.2438
v  3.6865 0.0000 -0.0000
v  4.9373 0.0000 5.6688
v  -4.9373 0.0000 5.6688
v  -3.6865 0.0000 -0.0000
v  5.2324 0.0000 -5.6610
v  -5.2324 0.0000 -5.6610
v  5.1738 0.0000 -8.4904
v  -5.1738 0.0000 -8.4904
v  3.1552 7.0000 10.2438
v  -3.1552 7.0000 10.2438
v  4.9373 7.0000 5.6688
v  3.6865 7.0000 -0.0000
v  -3.6865 7.0000 -0.0000
v  -4.9373 7.0000 5.6688
v  5.2324 7.0000 -5.6610
v  -5.2324 7.0000 -5.6610
v  5.1738 7.0000 -8.4904
v  -5.1738 7.0000 -8.4904
v  4.5690 0.0000 8.5152
v  -4.5690 0.0000 8.5152
v  3.9127 0.0000 -10.2202
v  -3.9127 0.0000 -10.2202
v  -4.5690 7.0000 8.5152
v  4.5690 7.0000 8.5152
v  -3.9127 7.0000 -10.2202
v  3.9127 7.0000 -10.2202
v  -5.2922 0.2500 8.3163
v  -3.6884 0.2500 10.8110
v  5.2922 0.2500 8.3163
v  5.6766 0.2500 5.5422
v  1.8983 0.2500 11.8244
v  3.6884 0.2500 10.8110
v  -4.4365 0.2500 -0.0000
v  -5.6765 0.2500 5.5422
v  4.4365 0.2500 -0.0000
v  -5.9726 0.2500 -5.5403
v  5.9726 0.2500 -5.5403
v  -5.9018 0.2500 -8.3101
v  -2.2528 0.2500 -11.8231
v  -4.4464 0.2500 -10.8050
v  5.9018 0.2500 -8.3101
v  4.4464 0.2500 -10.8050
v  -1.8983 6.7500 11.8244
v  -3.6884 6.7500 10.8110
v  5.2922 6.7500 8.3163
v  3.6884 6.7500 10.8110
v  -5.2922 6.7500 8.3163
v  -5.6765 6.7500 5.5422
v  4.4365 6.7500 -0.0000
v  5.6766 6.7500 5.5422
v  -4.4365 6.7500 -0.0000
v  5.9726 6.7500 -5.5403
v  -5.9726 6.7500 -5.5403
v  5.9018 6.7500 -8.3101
v  2.2528 6.7500 -11.8231
v  4.4464 6.7500 -10.8050
v  -5.9018 6.7500 -8.3101
v  -4.4464 6.7500 -10.8050
v  -1.8983 0.2500 11.8244
v  2.2528 0.2500 -11.8231
v  1.8983 6.7500 11.8244
v  -2.2528 6.7500 -11.8231
# 128 vertices

vn 0.0000 -1.0000 -0.0000
vn 0.1230 -0.9666 0.2249
vn -0.0817 -0.9750 0.2066
vn 0.0817 0.9750 0.2066
vn 0.0000 1.0000 -0.0000
vn -0.1230 0.9666 0.2249
vn 0.2316 -0.1441 0.9621
vn 0.2269 0.1405 0.9637
vn -0.2316 0.1441 0.9621
vn -0.2269 -0.1405 0.9637
vn 0.9371 -0.1331 0.3226
vn 0.9352 0.1355 0.3273
vn 0.6804 0.1569 0.7159
vn 0.6729 -0.1575 0.7227
vn 0.9869 -0.1561 -0.0416
vn 0.9861 -0.1644 0.0253
vn 0.9861 0.1644 0.0259
vn 0.9869 0.1558 -0.0423
vn 0.9800 -0.1575 0.1213
vn 0.9801 0.1575 0.1207
vn 0.9566 -0.1425 -0.2540
vn 0.9581 0.1401 -0.2500
vn -0.1987 -0.1466 -0.9690
vn -0.1953 0.1442 -0.9701
vn 0.1987 0.1466 -0.9690
vn 0.1953 -0.1442 -0.9701
vn -0.9581 -0.1401 -0.2500
vn -0.9566 0.1425 -0.2540
vn -0.6680 0.1600 -0.7268
vn -0.6624 -0.1596 -0.7320
vn -0.9801 -0.1575 0.1207
vn -0.9861 -0.1644 0.0259
vn -0.9861 0.1644 0.0253
vn -0.9800 0.1575 0.1213
vn -0.9869 -0.1558 -0.0423
vn -0.9869 0.1561 -0.0416
vn -0.9352 -0.1355 0.3273
vn -0.9371 0.1331 0.3226
vn 0.0609 -0.9784 -0.1976
vn -0.0797 -0.9751 -0.2070
vn -0.0609 0.9784 -0.1976
vn 0.0797 0.9751 -0.2070
vn 0.6680 -0.1600 -0.7268
vn 0.6624 0.1596 -0.7320
vn -0.6804 -0.1569 0.7159
vn -0.6729 0.1575 0.7227
vn 0.1128 -0.9850 0.1308
vn -0.1270 -0.9853 0.1144
vn 0.1358 -0.9907 0.0028
vn 0.1794 -0.9838 -0.0043
vn -0.1789 -0.9838 -0.0054
vn -0.1358 -0.9907 0.0032
vn 0.1734 -0.9846 0.0211
vn -0.1736 -0.9846 0.0204
vn 0.2167 -0.9702 -0.1081
vn -0.2062 -0.9750 -0.0826
vn 0.1270 0.9853 0.1144
vn -0.1128 0.9850 0.1308
vn 0.1789 0.9838 -0.0054
vn 0.1358 0.9907 0.0032
vn -0.1358 0.9907 0.0028
vn -0.1794 0.9838 -0.0043
vn 0.1736 0.9846 0.0204
vn -0.1734 0.9846 0.0211
vn 0.2062 0.9750 -0.0826
vn -0.2167 0.9702 -0.1081
vn 0.2102 -0.9722 0.1035
vn -0.2232 -0.9650 0.1374
vn 0.1253 -0.9843 -0.1247
vn -0.1120 -0.9843 -0.1365
vn -0.2102 0.9722 0.1035
vn 0.2232 0.9650 0.1374
vn -0.1253 0.9843 -0.1247
vn 0.1120 0.9843 -0.1365
vn -0.7186 -0.6387 0.2750
vn -0.5175 -0.6746 0.5265
vn 0.7216 -0.6412 0.2610
vn 0.7322 -0.6805 -0.0284
vn 0.2040 -0.6481 0.7338
vn 0.4965 -0.6753 0.5455
vn -0.6683 -0.7437 0.0178
vn -0.7321 -0.6806 -0.0302
vn 0.6683 -0.7437 0.0166
vn -0.7221 -0.6862 0.0880
vn 0.7219 -0.6862 0.0893
vn -0.7326 -0.6490 -0.2052
vn -0.1691 -0.6584 -0.7334
vn -0.4904 -0.6727 -0.5541
vn 0.7305 -0.6475 -0.2170
vn 0.5059 -0.6727 -0.5399
vn -0.2040 0.6481 0.7338
vn -0.4965 0.6753 0.5455
vn 0.7186 0.6387 0.2750
vn 0.5175 0.6746 0.5265
vn -0.7216 0.6412 0.2610
vn -0.7322 0.6805 -0.0284
vn 0.6683 0.7437 0.0178
vn 0.7321 0.6806 -0.0302
vn -0.6683 0.7437 0.0166
vn 0.7221 0.6862 0.0880
vn -0.7219 0.6862 0.0893
vn 0.7326 0.6490 -0.2052
vn 0.1691 0.6584 -0.7334
vn 0.4904 0.6727 -0.5541
vn -0.7305 0.6475 -0.2170
vn -0.5059 0.6727 -0.5399
vn -0.1896 -0.6497 0.7362
vn 0.1594 -0.6594 -0.7347
vn 0.1896 0.6497 0.7362
vn -0.1594 0.6594 -0.7347
# 110 vertex normals

vt 0.9200 0.3915 0.0000
vt 0.9698 0.4046 0.0000
vt 0.9698 0.5062 0.0000
vt 0.9200 0.5193 0.0000
vt 0.6999 0.4013 0.0000
vt 0.8466 0.3870 0.0000
vt 0.8466 0.5238 0.0000
vt 0.6999 0.5095 0.0000
vt 0.5532 0.3836 0.0000
vt 0.5532 0.5272 0.0000
vt 0.4799 0.3845 0.0000
vt 0.4799 0.5263 0.0000
vt 0.0276 0.0990 0.0000
vt 0.0775 0.0859 0.0000
vt 0.0775 0.2136 0.0000
vt 0.0276 0.2005 0.0000
vt 0.1508 0.0814 0.0000
vt 0.2975 0.0957 0.0000
vt 0.2975 0.2038 0.0000
vt 0.1508 0.2181 0.0000
vt 0.4442 0.0780 0.0000
vt 0.4442 0.2215 0.0000
vt 0.5176 0.0788 0.0000
vt 0.5176 0.2207 0.0000
vt 0.6817 0.9721 0.0000
vt 0.6817 0.8335 0.0000
vt 0.7834 0.8335 0.0000
vt 0.7834 0.9721 0.0000
vt 0.5492 0.9721 0.0000
vt 0.5492 0.8335 0.0000
vt 0.6254 0.8335 0.0000
vt 0.6254 0.9721 0.0000
vt 0.4729 0.9721 0.0000
vt 0.3205 0.9721 0.0000
vt 0.3205 0.8335 0.0000
vt 0.4729 0.8335 0.0000
vt 0.1680 0.9721 0.0000
vt 0.1680 0.8335 0.0000
vt 0.0918 0.9721 0.0000
vt 0.0918 0.8335 0.0000
vt 0.6894 0.7762 0.0000
vt 0.6894 0.6376 0.0000
vt 0.8111 0.6376 0.0000
vt 0.8111 0.7762 0.0000
vt 0.5458 0.7762 0.0000
vt 0.5458 0.6376 0.0000
vt 0.6220 0.6376 0.0000
vt 0.6220 0.7762 0.0000
vt 0.4696 0.7762 0.0000
vt 0.3171 0.7762 0.0000
vt 0.3171 0.6376 0.0000
vt 0.4696 0.6376 0.0000
vt 0.1646 0.7762 0.0000
vt 0.1646 0.6376 0.0000
vt 0.0884 0.7762 0.0000
vt 0.0884 0.6376 0.0000
vt 0.4302 0.3964 0.0000
vt 0.4302 0.5144 0.0000
vt 0.5673 0.2088 0.0000
vt 0.5673 0.0907 0.0000
vt 0.0155 0.9721 0.0000
vt 0.0155 0.8335 0.0000
vt 0.0122 0.7762 0.0000
vt 0.0122 0.6376 0.0000
vt 0.9490 0.3787 0.0000
vt 0.9490 0.5321 0.0000
vt 0.6999 0.3658 0.0000
vt 0.8378 0.3353 0.0000
vt 0.8378 0.5755 0.0000
vt 0.6999 0.5450 0.0000
vt 0.5623 0.3282 0.0000
vt 0.5623 0.5826 0.0000
vt 0.4935 0.3296 0.0000
vt 0.4935 0.5812 0.0000
vt 0.0484 0.0730 0.0000
vt 0.0484 0.2265 0.0000
vt 0.1597 0.0297 0.0000
vt 0.2975 0.0601 0.0000
vt 0.2975 0.2394 0.0000
vt 0.1597 0.2698 0.0000
vt 0.4352 0.0225 0.0000
vt 0.4352 0.2770 0.0000
vt 0.5040 0.0239 0.0000
vt 0.5040 0.2756 0.0000
vt 0.8398 0.8335 0.0000
vt 0.8398 0.9721 0.0000
vt 0.8784 0.6376 0.0000
vt 0.8784 0.7762 0.0000
vt 0.9070 0.3443 0.0000
vt 0.9070 0.5665 0.0000
vt 0.4514 0.3603 0.0000
vt 0.4514 0.5505 0.0000
vt 0.0905 0.2609 0.0000
vt 0.0905 0.0387 0.0000
vt 0.5461 0.2449 0.0000
vt 0.5461 0.0546 0.0000
vt 0.9022 0.5841 0.0000
vt 0.9628 0.5451 0.0000
vt 0.9022 0.3267 0.0000
vt 0.8347 0.3174 0.0000
vt 0.9875 0.4092 0.0000
vt 0.9628 0.3657 0.0000
vt 0.6999 0.5633 0.0000
vt 0.8347 0.5934 0.0000
vt 0.6999 0.3475 0.0000
vt 0.5652 0.6006 0.0000
vt 0.5652 0.3102 0.0000
vt 0.4979 0.5989 0.0000
vt 0.4124 0.5102 0.0000
vt 0.4372 0.5635 0.0000
vt 0.4979 0.3119 0.0000
vt 0.4372 0.3473 0.0000
vt 0.0100 0.1959 0.0000
vt 0.0346 0.2394 0.0000
vt 0.0953 0.0211 0.0000
vt 0.0346 0.0601 0.0000
vt 0.0953 0.2784 0.0000
vt 0.1628 0.2878 0.0000
vt 0.2975 0.0419 0.0000
vt 0.1628 0.0117 0.0000
vt 0.2975 0.2576 0.0000
vt 0.4323 0.0045 0.0000
vt 0.4323 0.2950 0.0000
vt 0.4996 0.0062 0.0000
vt 0.5850 0.0950 0.0000
vt 0.5603 0.0416 0.0000
vt 0.4996 0.2933 0.0000
vt 0.5603 0.2579 0.0000
vt 0.9875 0.5016 0.0000
vt 0.4124 0.4006 0.0000
vt 0.0100 0.1036 0.0000
vt 0.5850 0.2045 0.0000
vt 0.0866 0.7970 0.0000
vt 0.0174 0.7970 0.0000
vt 0.5510 0.9929 0.0000
vt 0.4741 0.9929 0.0000
vt 0.6800 0.9929 0.0000
vt 0.6253 0.9929 0.0000
vt 0.3171 0.7970 0.0000
vt 0.1635 0.7970 0.0000
vt 0.3205 0.9929 0.0000
vt 0.4707 0.7970 0.0000
vt 0.1669 0.9929 0.0000
vt 0.5475 0.7970 0.0000
vt 0.6878 0.7970 0.0000
vt 0.6218 0.7970 0.0000
vt 0.0901 0.9929 0.0000
vt 0.0209 0.9929 0.0000
vt 0.7852 0.8127 0.0000
vt 0.8348 0.8127 0.0000
vt 0.5510 0.8127 0.0000
vt 0.6253 0.8127 0.0000
vt 0.0866 0.6168 0.0000
vt 0.1635 0.6168 0.0000
vt 0.3205 0.8127 0.0000
vt 0.4741 0.8127 0.0000
vt 0.3171 0.6168 0.0000
vt 0.1669 0.8127 0.0000
vt 0.4707 0.6168 0.0000
vt 0.0901 0.8127 0.0000
vt 0.8127 0.6168 0.0000
vt 0.8735 0.6168 0.0000
vt 0.5475 0.6168 0.0000
vt 0.6218 0.6168 0.0000
vt 0.0174 0.6168 0.0000
vt 0.0209 0.8127 0.0000
vt 0.7852 0.9929 0.0000
vt 0.8348 0.9929 0.0000
vt 0.8127 0.7970 0.0000
vt 0.8735 0.7970 0.0000
vt 0.6800 0.8127 0.0000
vt 0.6878 0.6168 0.0000
# 172 texture coords

g Sponge
usemtl Sponge
s 1
f 1/1/1 2/2/2 3/3/3 4/4/1 
f 5/5/1 6/6/1 7/7/1 8/8/1 
f 9/9/1 5/5/1 8/8/1 10/10/1 
f 11/11/1 9/9/1 10/10/1 12/12/1 
f 13/13/4 14/14/5 15/15/5 16/16/6 
f 17/17/5 18/18/5 19/19/5 20/20/5 
f 18/18/5 21/21/5 22/22/5 19/19/5 
f 21/21/5 23/23/5 24/24/5 22/22/5 
f 25/25/7 26/26/8 27/27/9 28/28/10 
f 29/29/11 30/30/12 31/31/13 32/32/14 
f 33/33/15 34/34/16 35/35/17 36/36/18 
f 34/34/16 37/37/19 38/38/20 35/35/17 
f 39/39/21 40/40/22 38/38/20 37/37/19 
f 41/41/23 42/42/24 43/43/25 44/44/26 
f 45/45/27 46/46/28 47/47/29 48/48/30 
f 49/49/31 50/50/32 51/51/33 52/52/34 
f 50/50/32 53/53/35 54/54/36 51/51/33 
f 55/55/37 56/56/38 54/54/36 53/53/35 
f 6/6/1 1/1/1 4/4/1 7/7/1 
f 57/57/39 11/11/1 12/12/1 58/58/40 
f 20/20/5 15/15/5 14/14/5 17/17/5 
f 59/59/41 24/24/5 23/23/5 60/60/42 
f 33/33/15 36/36/18 30/30/12 29/29/11 
f 61/61/43 62/62/44 40/40/22 39/39/21 
f 49/49/31 52/52/34 46/46/28 45/45/27 
f 63/63/45 64/64/46 56/56/38 55/55/37 
f 1/1/1 65/65/47 2/2/2 
f 3/3/3 66/66/48 4/4/1 
f 67/67/49 68/68/50 6/6/1 5/5/1 
f 7/7/1 69/69/51 70/70/52 8/8/1 
f 9/9/1 71/71/53 67/67/49 5/5/1 
f 70/70/52 72/72/54 10/10/1 8/8/1 
f 73/73/55 71/71/53 9/9/1 11/11/1 
f 10/10/1 72/72/54 74/74/56 12/12/1 
f 13/13/4 75/75/57 14/14/5 
f 15/15/5 76/76/58 16/16/6 
f 17/17/5 77/77/59 78/78/60 18/18/5 
f 79/79/61 80/80/62 20/20/5 19/19/5 
f 78/78/60 81/81/63 21/21/5 18/18/5 
f 22/22/5 82/82/64 79/79/61 19/19/5 
f 21/21/5 81/81/63 83/83/65 23/23/5 
f 84/84/66 82/82/64 22/22/5 24/24/5 
f 32/32/14 31/31/13 26/26/8 25/25/7 
f 64/85/46 63/86/45 28/28/10 27/27/9 
f 48/48/30 47/47/29 42/42/24 41/41/23 
f 62/87/44 61/88/43 44/44/26 43/43/25 
f 6/6/1 68/68/50 85/89/67 1/1/1 
f 86/90/68 69/69/51 7/7/1 4/4/1 
f 57/57/39 87/91/69 11/11/1 
f 12/12/1 88/92/70 58/58/40 
f 20/20/5 80/80/62 89/93/71 15/15/5 
f 90/94/72 77/77/59 17/17/5 14/14/5 
f 59/59/41 91/95/73 24/24/5 
f 23/23/5 92/96/74 60/60/42 
f 93/97/75 86/90/68 66/66/48 94/98/76 
f 95/99/77 85/89/67 68/68/50 96/100/78 
f 97/101/79 2/2/2 65/65/47 98/102/80 
f 99/103/81 70/70/52 69/69/51 100/104/82 
f 96/100/78 68/68/50 67/67/49 101/105/83 
f 102/106/84 72/72/54 70/70/52 99/103/81 
f 101/105/83 67/67/49 71/71/53 103/107/85 
f 104/108/86 74/74/56 72/72/54 102/106/84 
f 105/109/87 58/58/40 88/92/70 106/110/88 
f 107/111/89 73/73/55 87/91/69 108/112/90 
f 109/113/91 16/16/6 76/76/58 110/114/92 
f 111/115/93 90/94/72 75/75/57 112/116/94 
f 113/117/95 89/93/71 80/80/62 114/118/96 
f 115/119/97 78/78/60 77/77/59 116/120/98 
f 114/118/96 80/80/62 79/79/61 117/121/99 
f 118/122/100 81/81/63 78/78/60 115/119/97 
f 117/121/99 79/79/61 82/82/64 119/123/101 
f 120/124/102 83/83/65 81/81/63 118/122/100 
f 121/125/103 60/60/42 92/96/74 122/126/104 
f 123/127/105 84/84/66 91/95/73 124/128/106 
f 100/104/82 69/69/51 86/90/68 93/97/75 
f 98/102/80 65/65/47 85/89/67 95/99/77 
f 106/110/88 88/92/70 74/74/56 104/108/86 
f 103/107/85 71/71/53 73/73/55 107/111/89 
f 116/120/98 77/77/59 90/94/72 111/115/93 
f 110/114/92 76/76/58 89/93/71 113/117/95 
f 122/126/104 92/96/74 83/83/65 120/124/102 
f 119/123/101 82/82/64 84/84/66 123/127/105 
f 125/129/107 3/3/3 2/2/2 97/101/79 
f 94/98/76 66/66/48 3/3/3 125/129/107 
f 126/130/108 57/57/39 58/58/40 105/109/87 
f 108/112/90 87/91/69 57/57/39 126/130/108 
f 127/131/109 13/13/4 16/16/6 109/113/91 
f 112/116/94 75/75/57 13/13/4 127/131/109 
f 128/132/110 59/59/41 60/60/42 121/125/103 
f 124/128/106 91/95/73 59/59/41 128/132/110 
f 55/55/37 93/133/75 94/134/76 63/63/45 
f 29/29/11 95/135/77 96/136/78 33/33/15 
f 25/25/7 97/137/79 98/138/80 32/32/14 
f 50/50/32 99/139/81 100/140/82 53/53/35 
f 33/33/15 96/136/78 101/141/83 34/34/16 
f 49/49/31 102/142/84 99/139/81 50/50/32 
f 34/34/16 101/141/83 103/143/85 37/37/19 
f 45/45/27 104/144/86 102/142/84 49/49/31 
f 41/41/23 105/145/87 106/146/88 48/48/30 
f 39/39/21 107/147/89 108/148/90 61/61/43 
f 27/27/9 109/149/91 110/150/92 64/85/46 
f 30/30/12 111/151/93 112/152/94 31/31/13 
f 56/56/38 113/153/95 114/154/96 54/54/36 
f 35/35/17 115/155/97 116/156/98 36/36/18 
f 54/54/36 114/154/96 117/157/99 51/51/33 
f 38/38/20 118/158/100 115/155/97 35/35/17 
f 51/51/33 117/157/99 119/159/101 52/52/34 
f 40/40/22 120/160/102 118/158/100 38/38/20 
f 43/43/25 121/161/103 122/162/104 62/87/44 
f 46/46/28 123/163/105 124/164/106 47/47/29 
f 53/53/35 100/140/82 93/133/75 55/55/37 
f 32/32/14 98/138/80 95/135/77 29/29/11 
f 48/48/30 106/146/88 104/144/86 45/45/27 
f 37/37/19 103/143/85 107/147/89 39/39/21 
f 36/36/18 116/156/98 111/151/93 30/30/12 
f 64/64/46 110/165/92 113/153/95 56/56/38 
f 62/62/44 122/166/104 120/160/102 40/40/22 
f 52/52/34 119/159/101 123/163/105 46/46/28 
f 28/28/10 125/167/107 97/137/79 25/25/7 
f 63/86/45 94/168/76 125/167/107 28/28/10 
f 44/44/26 126/169/108 105/145/87 41/41/23 
f 61/88/43 108/170/90 126/169/108 44/44/26 
f 26/26/8 127/171/109 109/149/91 27/27/9 
f 31/31/13 112/152/94 127/171/109 26/26/8 
f 42/42/24 128/172/110 121/161/103 43/43/25 
f 47/47/29 124/164/106 128/172/110 42/42/24 
f 15/15/5 89/93/71 76/76/58 
f 75/75/57 90/94/72 14/14/5 
f 91/95/73 84/84/66 24/24/5 
f 23/23/5 83/83/65 92/96/74 
f 12/12/1 74/74/56 88/92/70 
f 87/91/69 73/73/55 11/11/1 
f 66/66/48 86/90/68 4/4/1 
f 1/1/1 85/89/67 65/65/47 
# 118 polygons - 16 triangles

